<!--?xml version="1.0" standalone="no"?-->
              <svg id="sw-js-blob-svg" viewBox="0 0 100 100" xmlns="http://www.w3.org/2000/svg" version="1.1">
                    <defs> 
                        <linearGradient id="sw-gradient" x1="0" x2="1" y1="1" y2="0">
                            <stop id="stop1" stop-color="rgba(0, 0, 0, 0.52)" offset="0%"></stop>
                            <stop id="stop2" stop-color="rgba(230.649, 198.932, 146.58, 1)" offset="100%"></stop>
                        </linearGradient>
                    </defs>
                <path fill="rgba(0, 0, 0, 0.52)" d="M19.8,-30.7C27,-26.2,35.1,-23,39.2,-17C43.4,-11,43.6,-2.4,41.3,5.2C39,12.7,34.2,19.1,29,25.3C23.9,31.5,18.3,37.6,11.9,38.4C5.5,39.3,-1.7,35,-9.9,33C-18.1,30.9,-27.3,31.2,-33.6,27.3C-40,23.3,-43.6,15,-41.6,7.9C-39.6,0.8,-32.1,-5.2,-27,-10.6C-21.8,-15.9,-19,-20.6,-14.9,-26.4C-10.8,-32.3,-5.4,-39.3,0.4,-40C6.3,-40.7,12.6,-35.1,19.8,-30.7Z" width="100%" height="100%" transform="translate(50 50)" stroke-width="0" style="transition: all 0.3s ease 0s;" stroke="rgba(244.31, 161.396, 122.155, 0.45)"></path>
              </svg>