<!--?xml version="1.0" standalone="no"?-->
              <svg id="sw-js-blob-svg" viewBox="0 0 100 100" xmlns="http://www.w3.org/2000/svg" version="1.1">
                    <defs> 
                        <linearGradient id="sw-gradient" x1="0" x2="1" y1="1" y2="0">
                            <stop id="stop1" stop-color="rgba(244.31, 161.396, 122.155, 0.45)" offset="0%"></stop>
                            <stop id="stop2" stop-color="rgba(230.649, 198.932, 146.58, 1)" offset="100%"></stop>
                        </linearGradient>
                    </defs>
                <path fill="rgba(244.31, 161.396, 122.155, 0.45)" d="M19.4,-35.4C24.3,-30.8,26.8,-23.9,30.6,-17.6C34.4,-11.3,39.6,-5.6,40.1,0.3C40.5,6.2,36.3,12.3,32,17.9C27.8,23.6,23.7,28.7,18.3,32.9C13,37.1,6.5,40.5,0.4,39.8C-5.7,39.1,-11.3,34.2,-17.2,30.3C-23.1,26.4,-29.3,23.4,-33,18.5C-36.7,13.6,-38,6.8,-37.8,0.1C-37.5,-6.5,-35.7,-13,-32.9,-19.6C-30.1,-26.1,-26.4,-32.7,-20.7,-36.9C-15.1,-41,-7.6,-42.8,-0.1,-42.6C7.3,-42.4,14.5,-40.1,19.4,-35.4Z" width="100%" height="100%" transform="translate(50 50)" stroke-width="0" style="transition: all 0.3s ease 0s;" stroke="url(#sw-gradient)"></path>
              </svg>