<!--?xml version="1.0" standalone="no"?-->
              <svg id="sw-js-blob-svg" viewBox="0 0 100 100" xmlns="http://www.w3.org/2000/svg" version="1.1">
                    <defs> 
                        <linearGradient id="sw-gradient" x1="0" x2="1" y1="1" y2="0">
                            <stop id="stop1" stop-color="rgba(102, 102, 161, 1)" offset="0%"></stop>
                            <stop id="stop2" stop-color="rgba(230.649, 198.932, 146.58, 1)" offset="100%"></stop>
                        </linearGradient>
                    </defs>
                <path fill="rgba(102, 102, 161, 1)" d="M18.3,-33.5C23.8,-28.4,28.6,-23.9,33.5,-18.4C38.3,-12.9,43.2,-6.4,44.1,0.5C45,7.4,41.8,14.9,37.2,20.8C32.6,26.8,26.6,31.2,20.2,34.1C13.7,36.9,6.9,38.1,-0.4,38.7C-7.6,39.3,-15.2,39.4,-21,36.2C-26.9,33,-31,26.7,-35.2,20.1C-39.5,13.5,-43.9,6.8,-44.4,-0.3C-44.9,-7.3,-41.5,-14.7,-36.9,-20.6C-32.2,-26.5,-26.3,-30.9,-20,-35.5C-13.6,-40.1,-6.8,-44.8,-0.2,-44.4C6.3,-44,12.7,-38.5,18.3,-33.5Z" width="100%" height="100%" transform="translate(50 50)" stroke-width="0" style="transition: all 0.3s ease 0s;" stroke="rgba(18, 21, 26, 1)"></path>
              </svg>