<?xml version="1.0" standalone="no"?>
<!DOCTYPE svg PUBLIC "-//W3C//DTD SVG 20010904//EN"
 "http://www.w3.org/TR/2001/REC-SVG-20010904/DTD/svg10.dtd">
<svg version="1.0" xmlns="http://www.w3.org/2000/svg"
 width="500.000000pt" height="500.000000pt" viewBox="0 0 500.000000 500.000000"
 preserveAspectRatio="xMidYMid meet">
<metadata>
Created by potrace 1.14, written by Peter Selinger 2001-2017
</metadata>
<g transform="translate(0.000000,500.000000) scale(0.100000,-0.100000)"
fill="#000000" stroke="none">
<path d="M1680 4429 c-256 -55 -580 -210 -826 -395 -332 -250 -587 -624 -675
-989 -90 -377 65 -762 365 -904 108 -52 170 -65 296 -65 117 0 169 14 317 85
229 109 402 277 508 492 81 166 104 314 66 436 -34 108 -97 170 -200 197 -53
13 -76 14 -148 4 -86 -11 -187 -43 -199 -62 -12 -20 17 -25 115 -20 143 7 206
-21 253 -112 35 -67 37 -201 4 -315 -46 -163 -136 -314 -256 -433 -124 -122
-280 -188 -445 -188 -147 0 -271 47 -353 134 -65 69 -97 125 -123 221 -19 71
-21 96 -16 225 6 160 28 261 93 439 150 406 534 817 955 1024 343 169 644 209
843 111 119 -58 168 -141 174 -296 10 -243 -64 -512 -313 -1128 -391 -968
-471 -1327 -334 -1493 35 -43 74 -62 146 -72 121 -16 313 95 518 300 132 132
350 411 502 644 42 64 80 120 84 125 5 5 0 -21 -11 -59 -34 -119 -52 -270 -44
-370 17 -223 90 -358 232 -427 63 -31 75 -33 194 -36 95 -3 148 0 205 13 257
56 561 240 793 482 133 138 208 244 284 404 145 302 196 648 132 894 -38 149
-94 254 -180 340 -120 120 -262 174 -430 163 -110 -7 -218 -70 -167 -97 12 -7
49 -5 112 5 169 28 285 3 379 -82 56 -51 84 -97 117 -191 25 -72 27 -90 28
-243 0 -191 -12 -259 -82 -470 -59 -179 -155 -373 -240 -485 -171 -226 -484
-488 -707 -590 -250 -116 -441 -76 -496 103 -35 114 -21 310 34 477 15 44 92
242 172 441 128 320 145 369 147 425 3 86 -17 119 -72 119 -27 0 -49 -8 -75
-29 -75 -60 -132 -143 -391 -576 -418 -700 -640 -996 -850 -1138 -154 -104
-230 -57 -205 124 34 242 221 786 470 1369 103 242 177 455 212 610 19 87 23
134 23 270 0 188 -14 250 -84 357 -71 110 -168 176 -322 219 -80 22 -120 26
-264 30 -144 3 -184 1 -265 -17z"/>
</g>
</svg>
